<svg width="25" height="24" viewBox="0 0 25 24" fill="none" xmlns="http://www.w3.org/2000/svg">
<path d="M10.4999 13.2502C10.0857 13.2502 9.74995 13.586 9.74995 14.0002C9.74995 14.4144 10.0857 14.7502 10.4999 14.7502H14.4999C14.9142 14.7502 15.2499 14.4144 15.2499 14.0002C15.2499 13.586 14.9142 13.2502 14.4999 13.2502H10.4999Z" fill="#F1F3FC"/>
<path fill-rule="evenodd" clip-rule="evenodd" d="M15.1645 2.32934C15.535 2.1441 15.9855 2.29427 16.1708 2.66475L17.9841 6.29135C18.4116 6.31309 18.8015 6.3463 19.1548 6.39702C20.2105 6.54861 21.0843 6.87448 21.7053 7.64262C22.3263 8.41077 22.4618 9.33344 22.3888 10.3975C22.3181 11.4287 22.0394 12.729 21.691 14.3547L21.2396 16.4614C21.0047 17.5578 20.8141 18.4472 20.5743 19.142C20.3244 19.8661 19.9949 20.4616 19.4323 20.9164C18.8696 21.3713 18.2184 21.5686 17.458 21.6613C16.7284 21.7502 15.8188 21.7502 14.6974 21.7502H10.3025C9.1812 21.7502 8.27159 21.7502 7.54196 21.6613C6.78159 21.5686 6.13033 21.3713 5.56769 20.9164C5.00505 20.4616 4.67561 19.8661 4.42569 19.142C4.18586 18.4472 3.99529 17.5578 3.76035 16.4614L3.30893 14.3547C2.96055 12.7291 2.68188 11.4287 2.61115 10.3975C2.53816 9.33344 2.67371 8.41077 3.2947 7.64262C3.91568 6.87448 4.78947 6.54861 5.84519 6.39702C6.19846 6.3463 6.58832 6.31309 7.01583 6.29135L8.82913 2.66475C9.01437 2.29427 9.46487 2.1441 9.83536 2.32934C10.2058 2.51459 10.356 2.96509 10.1708 3.33557L8.71244 6.25223C9.076 6.25015 9.45865 6.25016 9.86076 6.25016H15.1392C15.5412 6.25016 15.924 6.25015 16.2875 6.25223L14.8291 3.33557C14.6439 2.96509 14.7941 2.51459 15.1645 2.32934ZM6.23206 7.85888L5.82913 8.66475C5.64388 9.03524 5.79405 9.48574 6.16454 9.67099C6.53502 9.85623 6.98553 9.70606 7.17077 9.33558L7.95802 7.76107C8.52842 7.7505 9.17786 7.75016 9.92191 7.75016H15.0781C15.8221 7.75016 16.4715 7.7505 17.0419 7.76107L17.8291 9.33558C18.0144 9.70606 18.4649 9.85623 18.8354 9.67099C19.2058 9.48574 19.356 9.03524 19.1708 8.66475L18.7678 7.85887C18.827 7.86603 18.8849 7.87366 18.9416 7.8818C19.8255 8.00871 20.2592 8.23982 20.5388 8.58564C20.8136 8.92563 20.9488 9.38809 20.8953 10.2502H4.10471C4.05112 9.38809 4.18634 8.92563 4.4612 8.58564C4.74076 8.23982 5.17449 8.00871 6.05837 7.8818C6.11501 7.87367 6.17289 7.86604 6.23206 7.85888ZM4.78844 14.1002C4.59145 13.1809 4.42663 12.4092 4.30694 11.7502H20.693C20.5733 12.4092 20.4085 13.1809 20.2115 14.1002L19.7829 16.1002C19.5355 17.2547 19.3629 18.0543 19.1564 18.6526C18.9565 19.2316 18.7517 19.5378 18.4893 19.7499C18.2268 19.9621 17.8845 20.0982 17.2766 20.1723C16.6482 20.2489 15.8302 20.2502 14.6495 20.2502H10.3505C9.16972 20.2502 8.35175 20.2489 7.72341 20.1723C7.11545 20.0982 6.77314 19.9621 6.51071 19.7499C6.24827 19.5378 6.04343 19.2316 5.8436 18.6526C5.63707 18.0543 5.46442 17.2547 5.21701 16.1002L4.78844 14.1002Z" fill="#F1F3FC"/>
</svg>
