<svg width="25" height="24" viewBox="0 0 25 24" fill="none" xmlns="http://www.w3.org/2000/svg">
<path fill-rule="evenodd" clip-rule="evenodd" d="M2.44995 6.5C2.44995 3.87665 4.5766 1.75 7.19995 1.75C9.8233 1.75 11.95 3.87665 11.95 6.5V9.16667C11.95 9.18794 11.95 9.20932 11.95 9.23078C11.9505 9.47335 11.951 9.72639 11.8903 9.95293C11.7285 10.5568 11.2568 11.0286 10.6529 11.1904C10.4263 11.2511 10.1733 11.2506 9.93073 11.2501C9.90927 11.25 9.88789 11.25 9.86662 11.25H7.19995C4.5766 11.25 2.44995 9.12335 2.44995 6.5ZM7.19995 3.25C5.40503 3.25 3.94995 4.70507 3.94995 6.5C3.94995 8.29493 5.40503 9.75 7.19995 9.75H9.86662C10.0284 9.75 10.1247 9.74982 10.1971 9.74652C10.2426 9.74444 10.2622 9.74162 10.2671 9.74082C10.3514 9.71732 10.4173 9.65143 10.4408 9.56714C10.4416 9.56229 10.4444 9.54266 10.4465 9.49713C10.4498 9.42479 10.45 9.32846 10.45 9.16667V6.5C10.45 4.70507 8.99488 3.25 7.19995 3.25Z" fill="#F1F3FC"/>
<path fill-rule="evenodd" clip-rule="evenodd" d="M15.4692 12.7499C15.4906 12.75 15.512 12.75 15.5333 12.75H18.2C20.8233 12.75 22.95 14.8766 22.95 17.5C22.95 20.1234 20.8233 22.25 18.2 22.25C15.5766 22.25 13.45 20.1234 13.45 17.5V14.8333C13.45 14.8121 13.4499 14.7907 13.4499 14.7692C13.4494 14.5266 13.4489 14.2736 13.5096 14.0471C13.6714 13.4432 14.1431 12.9714 14.747 12.8096C14.9736 12.7489 15.2266 12.7494 15.4692 12.7499ZM15.1328 14.2592C15.0485 14.2827 14.9826 14.3486 14.9591 14.4329C14.9583 14.4377 14.9555 14.4573 14.9534 14.5029C14.9501 14.5752 14.95 14.6715 14.95 14.8333V17.5C14.95 19.2949 16.405 20.75 18.2 20.75C19.9949 20.75 21.45 19.2949 21.45 17.5C21.45 15.7051 19.9949 14.25 18.2 14.25H15.5333C15.3715 14.25 15.2752 14.2502 15.2028 14.2535C15.1573 14.2556 15.1377 14.2584 15.1328 14.2592Z" fill="#F1F3FC"/>
<path fill-rule="evenodd" clip-rule="evenodd" d="M10.1957 14.2611C10.0665 14.2506 9.89235 14.25 9.59995 14.25H7.19995C5.40503 14.25 3.94995 15.7051 3.94995 17.5C3.94995 19.2949 5.40503 20.75 7.19995 20.75C8.99488 20.75 10.45 19.2949 10.45 17.5V15.1C10.45 14.8076 10.4494 14.6334 10.4388 14.5043C10.4324 14.4255 10.4239 14.3923 10.4211 14.3835C10.3976 14.3388 10.3611 14.3023 10.3165 14.2788C10.3076 14.2761 10.2745 14.2676 10.1957 14.2611ZM10.3191 14.2797L10.3176 14.2792L10.3191 14.2797ZM10.4202 14.3809L10.4208 14.3824L10.4202 14.3809ZM10.3178 12.7661C10.531 12.7835 10.7641 12.8234 10.9944 12.9407C11.3237 13.1085 11.5914 13.3762 11.7592 13.7055C11.8766 13.9358 11.9164 14.169 11.9338 14.3821C11.95 14.5798 11.95 14.8163 11.95 15.0738L11.95 17.5C11.95 20.1234 9.8233 22.25 7.19995 22.25C4.5766 22.25 2.44995 20.1234 2.44995 17.5C2.44995 14.8766 4.5766 12.75 7.19995 12.75L9.62617 12.75C9.88366 12.75 10.1201 12.75 10.3178 12.7661Z" fill="#F1F3FC"/>
<path fill-rule="evenodd" clip-rule="evenodd" d="M13.45 6.5C13.45 3.87665 15.5766 1.75 18.2 1.75C20.8233 1.75 22.95 3.87665 22.95 6.5C22.95 9.12335 20.8233 11.25 18.2 11.25H15.3428C15.3337 11.25 15.3245 11.25 15.3153 11.25C15.2114 11.2501 15.1034 11.2502 15.004 11.239C14.1927 11.1476 13.5524 10.5073 13.461 9.69594C13.4498 9.59653 13.4498 9.48858 13.4499 9.38464C13.4499 9.37544 13.45 9.36627 13.45 9.35714V6.5ZM18.2 3.25C16.405 3.25 14.95 4.70507 14.95 6.5V9.35714C14.95 9.42638 14.95 9.4676 14.9506 9.4987C14.951 9.51848 14.9515 9.5271 14.9517 9.52916C14.9651 9.64412 15.0558 9.7348 15.1708 9.74829C15.1728 9.74844 15.1815 9.74897 15.2013 9.74936C15.2324 9.74997 15.2736 9.75 15.3428 9.75H18.2C19.9949 9.75 21.45 8.29493 21.45 6.5C21.45 4.70507 19.9949 3.25 18.2 3.25Z" fill="#F1F3FC"/>
</svg>
