<svg width="25" height="24" viewBox="0 0 25 24" fill="none" xmlns="http://www.w3.org/2000/svg">
<path fill-rule="evenodd" clip-rule="evenodd" d="M17.1499 3.75V5.43953L19.1499 7.03953V3.75H17.1499ZM20.6499 8.23953V3.5C20.6499 2.80964 20.0903 2.25 19.3999 2.25H16.8999C16.2096 2.25 15.6499 2.80964 15.6499 3.5V4.23953L15.2425 3.91362C13.873 2.81796 11.9269 2.81796 10.5573 3.91362L2.43141 10.4143C2.10796 10.6731 2.05552 11.1451 2.31428 11.4685C2.57304 11.792 3.045 11.8444 3.36845 11.5857L4.14993 10.9605V21.25H2.89993C2.48572 21.25 2.14993 21.5858 2.14993 22C2.14993 22.4142 2.48572 22.75 2.89993 22.75H22.8999C23.3141 22.75 23.6499 22.4142 23.6499 22C23.6499 21.5858 23.3141 21.25 22.8999 21.25H21.6499V10.9605L22.4314 11.5857C22.7549 11.8444 23.2268 11.792 23.4856 11.4685C23.7443 11.1451 23.6919 10.6731 23.3685 10.4143L20.6499 8.23953ZM20.1499 9.76047L14.3055 5.08492C13.4838 4.42753 12.3161 4.42753 11.4944 5.08492L5.64993 9.76047V21.25H9.14993L9.14993 16.9506C9.14989 16.2858 9.14986 15.7129 9.21154 15.2542C9.27763 14.7625 9.42669 14.2913 9.80894 13.909C10.1912 13.5268 10.6624 13.3777 11.1541 13.3116C11.6128 13.2499 12.1857 13.25 12.8506 13.25H12.9493C13.6142 13.25 14.187 13.2499 14.6458 13.3116C15.1374 13.3777 15.6087 13.5268 15.9909 13.909C16.3732 14.2913 16.5222 14.7625 16.5883 15.2542C16.65 15.7129 16.65 16.2858 16.6499 16.9506L16.6499 21.25H20.1499V9.76047ZM15.1499 21.25V17C15.1499 16.2717 15.1483 15.8009 15.1017 15.454C15.058 15.1287 14.9874 15.0268 14.9303 14.9697C14.8732 14.9126 14.7712 14.842 14.4459 14.7982C14.099 14.7516 13.6282 14.75 12.8999 14.75C12.1716 14.75 11.7008 14.7516 11.354 14.7982C11.0287 14.842 10.9267 14.9126 10.8696 14.9697C10.8125 15.0268 10.7419 15.1287 10.6982 15.454C10.6515 15.8009 10.6499 16.2717 10.6499 17V21.25H15.1499ZM12.8999 8.25C12.2096 8.25 11.6499 8.80964 11.6499 9.5C11.6499 10.1904 12.2096 10.75 12.8999 10.75C13.5903 10.75 14.1499 10.1904 14.1499 9.5C14.1499 8.80964 13.5903 8.25 12.8999 8.25ZM10.1499 9.5C10.1499 7.98122 11.3811 6.75 12.8999 6.75C14.4187 6.75 15.6499 7.98122 15.6499 9.5C15.6499 11.0188 14.4187 12.25 12.8999 12.25C11.3811 12.25 10.1499 11.0188 10.1499 9.5Z" fill="#F1F3FC"/>
</svg>
