<svg width="25" height="24" viewBox="0 0 25 24" fill="none" xmlns="http://www.w3.org/2000/svg">
<path fill-rule="evenodd" clip-rule="evenodd" d="M8.34985 9C8.34985 6.92893 10.0288 5.25 12.0999 5.25C14.1709 5.25 15.8499 6.92893 15.8499 9C15.8499 11.0711 14.1709 12.75 12.0999 12.75C10.0288 12.75 8.34985 11.0711 8.34985 9ZM12.0999 6.75C10.8572 6.75 9.84985 7.75736 9.84985 9C9.84985 10.2426 10.8572 11.25 12.0999 11.25C13.3425 11.25 14.3499 10.2426 14.3499 9C14.3499 7.75736 13.3425 6.75 12.0999 6.75Z" fill="#F1F3FC"/>
<path fill-rule="evenodd" clip-rule="evenodd" d="M1.34985 12C1.34985 6.06294 6.16279 1.25 12.0999 1.25C18.0369 1.25 22.8499 6.06294 22.8499 12C22.8499 17.9371 18.0369 22.75 12.0999 22.75C6.16279 22.75 1.34985 17.9371 1.34985 12ZM12.0999 2.75C6.99122 2.75 2.84985 6.89137 2.84985 12C2.84985 14.5456 3.87812 16.851 5.54196 18.5235C5.72235 17.5504 6.07679 16.6329 6.78822 15.8951C7.85238 14.7915 9.55402 14.25 12.0998 14.25C14.6456 14.25 16.3472 14.7915 17.4114 15.8951C18.1228 16.6329 18.4773 17.5505 18.6577 18.5236C20.3216 16.8511 21.3499 14.5456 21.3499 12C21.3499 6.89137 17.2085 2.75 12.0999 2.75ZM17.2935 19.6554C17.1917 18.4435 16.9285 17.5553 16.3316 16.9363C15.6821 16.2628 14.4788 15.75 12.0998 15.75C9.72085 15.75 8.51747 16.2628 7.868 16.9363C7.27112 17.5553 7.00796 18.4434 6.90608 19.6553C8.38669 20.6618 10.1746 21.25 12.0999 21.25C14.0251 21.25 15.8129 20.6618 17.2935 19.6554Z" fill="#F1F3FC"/>
</svg>
