<svg width="25" height="24" viewBox="0 0 25 24" fill="none" xmlns="http://www.w3.org/2000/svg">
<path fill-rule="evenodd" clip-rule="evenodd" d="M7.73506 1.25H16.8645C17.4344 1.24998 17.9184 1.24997 18.3183 1.29132C18.7441 1.33534 19.1376 1.43094 19.5094 1.66071C19.8812 1.89048 20.1427 2.19971 20.3725 2.56088C20.5883 2.9001 20.8047 3.33297 21.0596 3.8428L21.0761 3.87574C21.0858 3.89518 21.0947 3.91504 21.1027 3.93526L22.5063 7.4834C22.6733 7.90559 22.8584 8.4323 22.9125 8.97128C22.9679 9.52258 22.8919 10.1541 22.4599 10.7019C22.1066 11.15 21.6153 11.4863 21.0498 11.6463V21.25H22.2998C22.714 21.25 23.0498 21.5858 23.0498 22C23.0498 22.4142 22.714 22.75 22.2998 22.75H2.2998C1.88559 22.75 1.5498 22.4142 1.5498 22C1.5498 21.5858 1.88559 21.25 2.2998 21.25H3.5498V11.6464C2.98427 11.4863 2.49293 11.15 2.13956 10.7019C1.7076 10.1541 1.63162 9.52257 1.68698 8.97127C1.74111 8.43229 1.92619 7.90559 2.09321 7.4834L3.49682 3.93526C3.50482 3.91504 3.51369 3.89518 3.52341 3.87574L3.5399 3.84275C3.79479 3.33295 4.0112 2.90009 4.22703 2.56088C4.45684 2.19971 4.71834 1.89048 5.09011 1.66071C5.46188 1.43094 5.85541 1.33534 6.28122 1.29132C6.68115 1.24997 7.1651 1.24998 7.73506 1.25ZM18.2997 10.8875C18.6357 11.2433 19.0656 11.5096 19.5498 11.6465V21.25H15.5498L15.5498 18.4678C15.5498 18.028 15.5498 17.6486 15.5216 17.3374C15.4918 17.0082 15.4257 16.6822 15.2484 16.375C15.0509 16.033 14.7668 15.7489 14.4248 15.5514C14.1176 15.3741 13.7916 15.308 13.4625 15.2782C13.1512 15.25 12.7718 15.25 12.332 15.25H12.2676C11.8278 15.25 11.4484 15.25 11.1372 15.2782C10.808 15.308 10.482 15.3741 10.1748 15.5514C9.83276 15.7489 9.54873 16.033 9.35125 16.375C9.17388 16.6822 9.10782 17.0082 9.07799 17.3374C9.04977 17.6486 9.04979 18.028 9.0498 18.4677L9.0498 21.25H5.0498V11.6465C5.53393 11.5095 5.96379 11.2433 6.29972 10.8875C6.8011 11.4186 7.5117 11.75 8.29972 11.75C9.08773 11.75 9.79834 11.4186 10.2997 10.8875C10.8011 11.4186 11.5117 11.75 12.2997 11.75C13.0877 11.75 13.7983 11.4186 14.2997 10.8875C14.8011 11.4186 15.5117 11.75 16.2997 11.75C17.0877 11.75 17.7983 11.4186 18.2997 10.8875ZM10.5498 21.25H14.0498V18.5C14.0498 18.0189 14.0491 17.7082 14.0277 17.4727C14.0073 17.2476 13.9729 17.1659 13.9493 17.125C13.8835 17.011 13.7888 16.9163 13.6748 16.8505C13.6339 16.8269 13.5522 16.7925 13.3271 16.7721C13.0916 16.7507 12.7809 16.75 12.2998 16.75C11.8187 16.75 11.508 16.7507 11.2725 16.7721C11.0474 16.7925 10.9657 16.8269 10.9248 16.8505C10.8108 16.9163 10.7161 17.011 10.6503 17.125C10.6267 17.1659 10.5923 17.2476 10.5719 17.4727C10.5505 17.7082 10.5498 18.0189 10.5498 18.5V21.25ZM7.04972 9C7.04972 9.69036 7.60936 10.25 8.29972 10.25C8.99007 10.25 9.54972 9.69036 9.54972 9C9.54972 8.58579 9.8855 8.25 10.2997 8.25C10.7139 8.25 11.0497 8.58579 11.0497 9C11.0497 9.69036 11.6094 10.25 12.2997 10.25C12.9901 10.25 13.5497 9.69036 13.5497 9C13.5497 8.58579 13.8855 8.25 14.2997 8.25C14.7139 8.25 15.0497 8.58579 15.0497 9C15.0497 9.69036 15.6094 10.25 16.2997 10.25C16.9901 10.25 17.5497 9.69036 17.5497 9C17.5497 8.58579 17.8855 8.25 18.2997 8.25C18.7139 8.25 19.0497 8.58579 19.0497 9C19.0497 9.69036 19.6094 10.25 20.2997 10.25C20.6977 10.25 21.052 10.0649 21.2821 9.77305C21.396 9.62859 21.4511 9.43094 21.42 9.12114C21.3877 8.79903 21.2688 8.43275 21.1115 8.03518L19.7199 4.51739C19.4522 3.98204 19.2733 3.62749 19.107 3.36612C18.947 3.1147 18.8323 3.00562 18.7208 2.93669C18.6093 2.86776 18.4605 2.81401 18.164 2.78336C17.8503 2.75093 17.4444 2.75 16.8276 2.75H7.77194C7.15514 2.75 6.7492 2.75093 6.43549 2.78336C6.13907 2.81401 5.99024 2.86776 5.87871 2.93669C5.76718 3.00562 5.65255 3.1147 5.49257 3.36612C5.32626 3.62749 5.14736 3.98204 4.87964 4.51739L3.48803 8.03518C3.33076 8.43275 3.21182 8.79903 3.17948 9.12115C3.14837 9.43095 3.20347 9.62861 3.31739 9.77307C3.54751 10.0649 3.90176 10.25 4.29972 10.25C4.99007 10.25 5.54972 9.69036 5.54972 9C5.54972 8.58579 5.8855 8.25 6.29972 8.25C6.71393 8.25 7.04972 8.58579 7.04972 9Z" fill="#F1F3FC"/>
</svg>
