<svg width="222" height="37" viewBox="0 0 222 37" fill="none" xmlns="http://www.w3.org/2000/svg">
<path fill-rule="evenodd" clip-rule="evenodd" d="M121.238 20.7498H107.922V23.3942H113.707V32.5358C112.125 33.4835 110.281 33.9611 108.187 33.9611C106.302 33.9611 104.609 33.6427 103.111 33.0038C101.602 32.367 100.33 31.4439 99.2905 30.2547C98.2509 29.0559 97.4642 27.5804 96.9284 25.8185C96.383 24.0577 96.1151 22.1035 96.1151 19.9655C96.1151 17.8019 96.383 15.7559 96.9284 13.8209C97.4632 11.8913 98.2594 10.1796 99.314 8.68809C100.371 7.20294 101.669 6.04582 103.211 5.22522C104.81 4.35978 106.619 3.92492 108.631 3.92492C110.641 3.92492 112.516 4.36939 114.252 5.24872C115.986 6.12916 117.418 7.39526 118.548 9.04815H119.233C119.463 7.28735 119.939 5.59276 120.659 3.97514C119.412 3.26996 118.156 2.69193 116.883 2.23677C115.6 1.79337 114.277 1.45787 112.895 1.24098C111.513 1.0134 110.055 0.904419 108.539 0.904419C104.626 0.904419 101.084 1.62669 97.9157 3.0755C94.7574 4.52645 92.2704 6.673 90.4687 9.50972C88.667 12.3507 87.7715 15.789 87.7715 19.8117C87.7715 22.6484 88.2977 25.1464 89.3554 27.3271C90.41 29.51 91.868 31.3092 93.737 32.7463C95.6049 34.1791 97.7311 35.2433 100.144 35.941C102.549 36.6365 105.103 36.9795 107.826 36.9795C109.836 36.9795 111.915 36.7872 114.067 36.3929C116.22 35.9976 118.615 35.4281 121.245 34.6984V20.769H121.237L121.238 20.7498ZM199.314 22.7916L204.071 11.0002L208.537 22.7916H199.314ZM207.883 1.35958C207.212 1.45787 206.576 1.50916 205.962 1.50916C205.347 1.50916 204.716 1.45894 204.081 1.35958L189.697 36.2241L190.928 36.1504L192.1 36.0745L193.282 36.1504L194.464 36.2241L195.391 33.2228L196.783 29.3337L198.015 25.811H209.711C210.615 28.0248 211.795 31.5208 213.272 36.3181C213.872 36.3181 214.594 36.2925 215.424 36.2423C216.262 36.2006 216.988 36.1408 217.608 36.0745L221.923 36.3256L207.883 1.35958ZM170.866 18.0626L169.617 18.0124V4.52645H171.117C172.824 4.52645 174.216 4.76151 175.264 5.24124C176.318 5.7178 176.981 6.73176 177.24 8.28315C177.323 8.71159 177.383 9.14645 177.433 9.60054C177.484 10.0525 177.507 10.4553 177.507 10.8154C177.507 15.6479 175.294 18.0626 170.866 18.0626ZM183.339 28.5612L179.995 23.3205L177.467 19.068C179.887 18.5328 181.806 17.4846 183.203 15.9407C184.602 14.3904 185.298 12.4202 185.298 10.013C185.298 6.73283 183.841 4.3352 180.924 2.81694C179.493 2.14702 176.771 1.81153 172.781 1.81153H162.075V36.3181C162.606 36.3181 163.224 36.2925 163.942 36.2423C164.664 36.2006 165.294 36.1408 165.839 36.0745L169.617 36.3181V20.1771H169.959L171.576 22.9027L173.243 25.7533L179.201 36.3181C179.81 36.3181 180.547 36.2925 181.428 36.2423C182.3 36.2006 183.078 36.1408 183.748 36.0745L188.315 36.3256L186.354 33.2068L183.339 28.5612ZM135.06 22.7916L139.816 11.0002L144.283 22.7916H135.06ZM141.713 1.50809C141.094 1.50809 140.463 1.45787 139.828 1.35851L125.443 36.223L126.675 36.1493L127.848 36.0734L129.027 36.1493L130.21 36.223L131.14 33.2218L132.528 29.3326L133.761 25.8099H145.456C146.359 28.0238 147.54 31.5197 149.016 36.3171C149.619 36.3171 150.34 36.2914 151.168 36.2412C152.006 36.1995 152.736 36.1397 153.354 36.0734L157.668 36.3245L143.629 1.35851C142.961 1.45787 142.324 1.50809 141.713 1.50809ZM62.4139 22.7916L67.1723 11.0002L71.6381 22.7916H62.4139ZM69.0668 1.50809C68.4456 1.50809 67.818 1.45787 67.1808 1.35851L52.7958 36.223L54.0276 36.1493L55.2006 36.0734L56.3811 36.1493L57.5616 36.223L58.4924 33.2218L59.8811 29.3326L61.1139 25.8099H72.809C73.7131 28.0238 74.8958 31.5197 76.3698 36.3171C76.9729 36.3171 77.6933 36.2914 78.5227 36.2412C79.3606 36.1995 80.0896 36.1397 80.7097 36.0734L85.0219 36.3245L70.9828 1.35958C70.3135 1.45787 69.6763 1.50809 69.0668 1.50809ZM43.7339 2.04659C43.1383 2.00492 42.5448 1.9547 41.9417 1.89594C41.328 1.83717 40.6769 1.81046 39.9735 1.81046V36.3171C40.4827 36.3171 41.0953 36.2914 41.8147 36.2412C42.5341 36.1995 43.1724 36.1397 43.7339 36.0734L47.5124 36.3245V1.81046C46.9851 1.81046 46.3649 1.8361 45.6445 1.88739C44.9229 1.92799 44.2857 1.98676 43.7339 2.04659ZM27.1885 1.80191V25.3655C26.7285 24.8366 26.1404 24.1688 25.421 23.344C25.2438 23.1335 24.6514 22.4796 23.6534 21.3823C22.9329 20.5938 22.3555 19.957 21.9115 19.4708L16.0302 13.1061L10.4596 7.16128L5.47502 1.81046H0.5V36.223L1.5044 36.1493L2.51093 36.0734L3.49077 36.1493L4.52079 36.223V11.8731L9.9932 17.6011C11.0563 18.7165 11.9369 19.6568 12.6381 20.4271C13.618 21.4924 14.4826 22.4315 15.219 23.2532L20.7395 29.3497L26.9377 36.2765L31.2104 36.3256V1.81153C30.5219 1.90342 29.8527 1.9547 29.1995 1.9547C28.495 1.9547 27.8247 1.90342 27.1885 1.80191Z" fill="white"/>
</svg>
