<svg width="24" height="24" viewBox="0 0 24 24" fill="none" xmlns="http://www.w3.org/2000/svg">
<g clip-path="url(#clip0_1737_28166)">
<path fill-rule="evenodd" clip-rule="evenodd" d="M19.2132 4.92893C23.1184 8.83418 23.1184 15.1658 19.2132 19.0711C15.308 22.9763 8.97631 22.9763 5.07107 19.0711C1.16582 15.1658 1.16582 8.83418 5.07107 4.92893C8.97631 1.02369 15.308 1.02369 19.2132 4.92893ZM7.85656 12C7.85656 11.5858 8.19234 11.25 8.60656 11.25L11.3921 11.25L11.3921 8.4645C11.3921 8.05028 11.7279 7.7145 12.1421 7.7145C12.5563 7.7145 12.8921 8.05028 12.8921 8.4645V11.25H15.6776C16.0918 11.25 16.4276 11.5858 16.4276 12C16.4276 12.4142 16.0918 12.75 15.6776 12.75L12.8921 12.75V15.5355C12.8921 15.9497 12.5563 16.2855 12.1421 16.2855C11.7279 16.2855 11.3921 15.9497 11.3921 15.5355L11.3921 12.75L8.60656 12.75C8.19234 12.75 7.85656 12.4142 7.85656 12Z" fill="#044B75"/>
</g>
<defs>
<clipPath id="clip0_1737_28166">
<rect width="24" height="24" fill="white"/>
</clipPath>
</defs>
</svg>
