<svg width="24" height="24" viewBox="0 0 24 24" fill="none" xmlns="http://www.w3.org/2000/svg">
<g clip-path="url(#clip0_1737_28166)">
<path fill-rule="evenodd" clip-rule="evenodd" d="M19.0711 4.92893C22.9764 8.83418 22.9764 15.1658 19.0711 19.0711C15.1659 22.9763 8.83422 22.9763 4.92898 19.0711C1.02373 15.1658 1.02373 8.83418 4.92898 4.92893C8.83422 1.02369 15.1659 1.02369 19.0711 4.92893ZM7.71447 12C7.71447 11.5858 8.05025 11.25 8.46447 11.25L11.25 11.25L11.25 8.4645C11.25 8.05028 11.5858 7.7145 12 7.7145C12.4142 7.7145 12.75 8.05028 12.75 8.4645V11.25H15.5355C15.9497 11.25 16.2855 11.5858 16.2855 12C16.2855 12.4142 15.9497 12.75 15.5355 12.75L12.75 12.75V15.5355C12.75 15.9497 12.4142 16.2855 12 16.2855C11.5858 16.2855 11.25 15.9497 11.25 15.5355L11.25 12.75L8.46447 12.75C8.05025 12.75 7.71447 12.4142 7.71447 12Z" fill="#044B75"/>
</g>
<defs>
<clipPath id="clip0_1737_28166">
<rect width="24" height="24" fill="white"/>
</clipPath>
</defs>
</svg>
