<svg width="24" height="24" viewBox="0 0 24 24" fill="none" xmlns="http://www.w3.org/2000/svg">
<rect width="24" height="24" rx="12" fill="url(#paint0_linear_1387_24561)"/>
<path fill-rule="evenodd" clip-rule="evenodd" d="M9.17967 16.8485C9.39725 16.6465 9.39725 16.319 9.17967 16.117L7.9022 14.931H14.7286C17.0876 14.931 19 13.1556 19 10.9655C19 8.77542 17.0876 7 14.7286 7H9.52858C9.22087 7 8.97143 7.23158 8.97143 7.51724C8.97143 7.80291 9.22087 8.03448 9.52858 8.03448H14.7286C16.4722 8.03448 17.8857 9.34675 17.8857 10.9655C17.8857 12.5843 16.4722 13.8966 14.7286 13.8966H7.9022L9.17967 12.7106C9.39725 12.5086 9.39725 12.1811 9.17967 11.9791C8.96209 11.7771 8.60933 11.7771 8.39175 11.9791L6.16318 14.048C5.94561 14.25 5.94561 14.5775 6.16318 14.7795L8.39175 16.8485C8.60933 17.0505 8.96209 17.0505 9.17967 16.8485Z" fill="white"/>
<defs>
<linearGradient id="paint0_linear_1387_24561" x1="23.25" y1="32.2441" x2="2.25" y2="-7.50586" gradientUnits="userSpaceOnUse">
<stop stop-color="#1B6A99"/>
<stop offset="1" stop-color="#3065AA"/>
</linearGradient>
</defs>
</svg>
