<svg width="24" height="24" viewBox="0 0 24 24" fill="none" xmlns="http://www.w3.org/2000/svg">
<rect width="24" height="24" rx="12" fill="url(#paint0_linear_1370_20590)"/>
<path d="M8.57383 16.9951C8.47884 16.9951 8.40112 16.9618 8.34067 16.8951C8.28022 16.8285 8.25 16.7427 8.25 16.638V7.35226C8.25 7.2475 8.28022 7.16178 8.34067 7.09512C8.40112 7.02845 8.47884 6.99512 8.57383 6.99512H9.94689C10.0937 6.99512 10.1973 7.03321 10.2578 7.1094C10.3269 7.17607 10.37 7.22845 10.3873 7.26655L13.5479 12.7665V7.35226C13.5479 7.2475 13.5782 7.16178 13.6386 7.09512C13.699 7.02845 13.7768 6.99512 13.8718 6.99512H15.4262C15.5212 6.99512 15.5989 7.02845 15.6593 7.09512C15.7198 7.16178 15.75 7.2475 15.75 7.35226V16.638C15.75 16.7332 15.7198 16.8189 15.6593 16.8951C15.5989 16.9618 15.5212 16.9951 15.4262 16.9951H14.0402C13.902 16.9951 13.7984 16.957 13.7293 16.8808C13.6688 16.8046 13.63 16.7523 13.6127 16.7237L10.4521 11.438V16.638C10.4521 16.7427 10.4218 16.8285 10.3614 16.8951C10.3009 16.9618 10.2232 16.9951 10.1282 16.9951H8.57383Z" fill="white"/>
<defs>
<linearGradient id="paint0_linear_1370_20590" x1="30.1789" y1="6.17506" x2="6.17886" y2="-6.18266" gradientUnits="userSpaceOnUse">
<stop stop-color="#FBAB7E"/>
<stop offset="1" stop-color="#F7CE68"/>
</linearGradient>
</defs>
</svg>
