<svg width="24" height="24" viewBox="0 0 24 24" fill="none" xmlns="http://www.w3.org/2000/svg">
<path d="M9.25098 14.0029C10.9078 14.0029 12.251 15.3461 12.251 17.0029C12.251 18.6598 10.9078 20.0029 9.25098 20.0029C7.59412 20.0029 6.25098 18.6598 6.25098 17.0029C6.25098 15.3461 7.59412 14.0029 9.25098 14.0029Z" fill="#044B75"/>
<path d="M14.251 4.00293C12.5941 4.00293 11.251 5.34608 11.251 7.00293C11.251 8.65978 12.5941 10.0029 14.251 10.0029C15.9078 10.0029 17.251 8.65978 17.251 7.00293C17.251 5.34608 15.9078 4.00293 14.251 4.00293Z" fill="#044B75"/>
<path d="M8.75098 6.21145C9.16519 6.21145 9.50098 6.54724 9.50098 6.96145C9.50098 7.37566 9.16519 7.71145 8.75098 7.71145L1.75098 7.71145C1.33676 7.71145 1.00098 7.37566 1.00098 6.96145C1.00098 6.54724 1.33676 6.21145 1.75098 6.21145H8.75098Z" fill="#044B75"/>
<path d="M14.751 16.2115C14.3368 16.2115 14.001 16.5472 14.001 16.9615C14.001 17.3757 14.3368 17.7115 14.751 17.7115H21.751C22.1652 17.7115 22.501 17.3757 22.501 16.9615C22.501 16.5472 22.1652 16.2115 21.751 16.2115H14.751Z" fill="#044B75"/>
<path d="M1.00098 16.9615C1.00098 16.5472 1.33676 16.2115 1.75098 16.2115H3.75098C4.16519 16.2115 4.50098 16.5472 4.50098 16.9615C4.50098 17.3757 4.16519 17.7115 3.75098 17.7115H1.75098C1.33676 17.7115 1.00098 17.3757 1.00098 16.9615Z" fill="#044B75"/>
<path d="M21.751 6.21145C22.1652 6.21145 22.501 6.54724 22.501 6.96145C22.501 7.37566 22.1652 7.71145 21.751 7.71145L19.751 7.71145C19.3368 7.71145 19.001 7.37566 19.001 6.96145C19.001 6.54724 19.3368 6.21145 19.751 6.21145H21.751Z" fill="#044B75"/>
</svg>
