<svg width="24" height="24" viewBox="0 0 24 24" fill="none" xmlns="http://www.w3.org/2000/svg">
<rect width="24" height="24" rx="12" fill="#FFE2E5"/>
<path opacity="0.5" d="M12.6937 20.1676C15.2986 19.6454 18.6667 17.7715 18.6667 12.9258C18.6667 8.51617 15.4389 5.57978 13.1179 4.23054C12.6029 3.93115 12 4.32489 12 4.9206V6.44434C12 7.64588 11.4948 9.8391 10.0911 10.7513C9.37443 11.2171 8.60043 10.52 8.51333 9.66973L8.44181 8.97154C8.35866 8.15986 7.53201 7.66713 6.8833 8.162C5.71789 9.05103 4.5 10.6078 4.5 12.9258C4.5 18.8517 8.90741 20.3332 11.1111 20.3332C11.2393 20.3332 11.374 20.3294 11.5142 20.3213C11.8858 20.2745 11.5142 20.404 12.6937 20.1676Z" fill="#F25C68"/>
<path d="M8.66699 17.3695C8.66699 19.5526 10.4264 20.2277 11.5145 20.3208C11.8861 20.2739 11.5145 20.4034 12.694 20.167C13.5595 19.8612 14.5003 19.0761 14.5003 17.3695C14.5003 16.288 13.8181 15.6208 13.2837 15.3085C13.1202 15.2129 12.9304 15.3332 12.9158 15.522C12.8694 16.1205 12.2948 16.5971 11.9034 16.1421C11.5574 15.74 11.4121 15.1526 11.4121 14.7769V14.2859C11.4121 13.9898 11.1141 13.7937 10.8595 13.9448C9.91289 14.5063 8.66699 15.6617 8.66699 17.3695Z" fill="#F25C68"/>
</svg>
