<svg width="20" height="21" viewBox="0 0 20 21" fill="none" xmlns="http://www.w3.org/2000/svg">
<path fill-rule="evenodd" clip-rule="evenodd" d="M20 10.5C20 16.0228 15.5228 20.5 10 20.5C4.47715 20.5 0 16.0228 0 10.5C0 4.97715 4.47715 0.5 10 0.5C15.5228 0.5 20 4.97715 20 10.5ZM10 16.25C10.4142 16.25 10.75 15.9142 10.75 15.5V9.5C10.75 9.08579 10.4142 8.75 10 8.75C9.58579 8.75 9.25 9.08579 9.25 9.5V15.5C9.25 15.9142 9.58579 16.25 10 16.25ZM10 5.5C10.5523 5.5 11 5.94772 11 6.5C11 7.05228 10.5523 7.5 10 7.5C9.44771 7.5 9 7.05228 9 6.5C9 5.94772 9.44771 5.5 10 5.5Z" fill="#0F78FF"/>
</svg>
