<svg width="24" height="24" viewBox="0 0 24 24" fill="none" xmlns="http://www.w3.org/2000/svg">
<path fill-rule="evenodd" clip-rule="evenodd" d="M5.925 10.9241V9.075C5.925 5.71987 8.64487 3 12 3C15.3551 3 18.075 5.71987 18.075 9.075V10.9241C19.0783 10.9991 19.7316 11.1882 20.2092 11.6658C21 12.4566 21 13.7294 21 16.275C21 18.8206 21 20.0934 20.2092 20.8842C19.4184 21.675 18.1456 21.675 15.6 21.675H8.4C5.85442 21.675 4.58162 21.675 3.79081 20.8842C3 20.0934 3 18.8206 3 16.275C3 13.7294 3 12.4566 3.79081 11.6658C4.26838 11.1882 4.92172 10.9991 5.925 10.9241ZM7.275 9.075C7.275 6.46545 9.39045 4.35 12 4.35C14.6095 4.35 16.725 6.46545 16.725 9.075V10.8782C16.3803 10.875 16.0064 10.875 15.6 10.875H8.4C7.99364 10.875 7.61971 10.875 7.275 10.8782V9.075Z" fill="#044B75"/>
</svg>
