<svg width="20" height="20" viewBox="0 0 20 20" fill="none" xmlns="http://www.w3.org/2000/svg">
<rect width="20" height="20" rx="10" fill="url(#paint0_linear_3449_86618)"/>
<path d="M7.14486 14.1626C7.0657 14.1626 7.00094 14.1348 6.95056 14.0792C6.90019 14.0237 6.875 13.9522 6.875 13.8649V6.12684C6.875 6.03954 6.90019 5.96811 6.95056 5.91256C7.00094 5.857 7.0657 5.82922 7.14486 5.82922H8.28908C8.41141 5.82922 8.49777 5.86097 8.54814 5.92446C8.60571 5.98002 8.6417 6.02367 8.65609 6.05541L11.2899 10.6387V6.12684C11.2899 6.03954 11.3151 5.96811 11.3655 5.91256C11.4159 5.857 11.4806 5.82922 11.5598 5.82922H12.8551C12.9343 5.82922 12.9991 5.857 13.0494 5.91256C13.0998 5.96811 13.125 6.03954 13.125 6.12684V13.8649C13.125 13.9443 13.0998 14.0157 13.0494 14.0792C12.9991 14.1348 12.9343 14.1626 12.8551 14.1626H11.7001C11.585 14.1626 11.4986 14.1308 11.4411 14.0673C11.3907 14.0038 11.3583 13.9602 11.3439 13.9364L8.71006 9.5316V13.8649C8.71006 13.9522 8.68487 14.0237 8.6345 14.0792C8.58412 14.1348 8.51936 14.1626 8.4402 14.1626H7.14486Z" fill="white"/>
<defs>
<linearGradient id="paint0_linear_3449_86618" x1="25.149" y1="5.14588" x2="5.14905" y2="-5.15221" gradientUnits="userSpaceOnUse">
<stop stop-color="#FBAB7E"/>
<stop offset="1" stop-color="#F7CE68"/>
</linearGradient>
</defs>
</svg>
