<svg width="24" height="24" viewBox="0 0 24 24" fill="none" xmlns="http://www.w3.org/2000/svg">
<g clip-path="url(#clip0_2472_63830)">
<path fill-rule="evenodd" clip-rule="evenodd" d="M12.085 1C7.80479 1 4.335 4.46979 4.335 8.75V9.4541C4.335 10.151 4.12871 10.8324 3.74213 11.4122L2.59353 13.1351C1.26043 15.1348 2.27814 17.8528 4.59673 18.4851C5.35234 18.6912 6.11433 18.8655 6.88074 19.0081L6.88264 19.0132C7.65163 21.0651 9.70694 22.5 12.0849 22.5C14.4629 22.5 16.5182 21.0651 17.2872 19.0132L17.2891 19.0081C18.0556 18.8655 18.8176 18.6912 19.5733 18.4851C21.8919 17.8528 22.9096 15.1348 21.5765 13.1351L20.4279 11.4122C20.0413 10.8324 19.835 10.151 19.835 9.4541V8.75C19.835 4.46979 16.3652 1 12.085 1ZM15.4614 19.287C13.2185 19.555 10.9514 19.5549 8.70845 19.2869C9.4194 20.3085 10.656 21 12.0849 21C13.5139 21 14.7505 20.3085 15.4614 19.287ZM5.835 8.75C5.835 5.29822 8.63322 2.5 12.085 2.5C15.5368 2.5 18.335 5.29822 18.335 8.75V9.4541C18.335 10.4472 18.6289 11.418 19.1798 12.2443L20.3284 13.9672C21.0936 15.1149 20.5094 16.675 19.1786 17.038C14.5343 18.3046 9.63566 18.3046 4.9914 17.038C3.66057 16.675 3.07643 15.1149 3.8416 13.9672L4.9902 12.2443C5.54105 11.418 5.835 10.4472 5.835 9.4541V8.75Z" fill="#044B75"/>
<rect x="13.5" y="-0.5" width="11" height="11" rx="5.5" fill="#44C3A5"/>
<rect x="13.5" y="-0.5" width="11" height="11" rx="5.5" stroke="white"/>
</g>
<defs>
<clipPath id="clip0_2472_63830">
<rect width="24" height="24" rx="5" fill="white"/>
</clipPath>
</defs>
</svg>
