<svg width="24" height="24" viewBox="0 0 24 24" fill="none" xmlns="http://www.w3.org/2000/svg">
<path d="M17.0625 1H6.0625C4.92503 1 4 1.92503 4 3.0625V20.25C4 21.0083 4.61669 21.625 5.375 21.625V22.3125C5.375 22.692 5.683 23 6.0625 23C6.442 23 6.75 22.692 6.75 22.3125V21.625H16.375V22.3125C16.375 22.692 16.683 23 17.0625 23C17.442 23 17.75 22.692 17.75 22.3125V21.625C18.5083 21.625 19.125 21.0083 19.125 20.25V3.0625C19.125 1.92503 18.2 1 17.0625 1ZM6.0625 2.375H17.0625C17.4417 2.375 17.75 2.68334 17.75 3.0625L17.7503 6.5H5.375V3.0625C5.375 2.68334 5.68334 2.375 6.0625 2.375ZM10.875 13.375V12H12.25V13.375H10.875ZM10.875 14.75V15.4375C10.875 15.817 11.183 16.125 11.5625 16.125C11.942 16.125 12.25 15.817 12.25 15.4375V14.75C13.0083 14.75 13.625 14.1333 13.625 13.375V12H14.3125C14.6917 12 15 12.3083 15 12.6875V20.25H8.125V12.6875C8.125 12.3083 8.43334 12 8.8125 12H9.5V13.375C9.5 14.1333 10.1167 14.75 10.875 14.75ZM16.375 20.25V12.6875C16.375 11.55 15.45 10.625 14.3125 10.625H8.8125C7.67503 10.625 6.75 11.55 6.75 12.6875V20.25H5.375V7.875H17.7503L17.751 20.25H16.375ZM9.5 4.4375C9.5 4.058 9.808 3.75 10.1875 3.75H12.9375C13.317 3.75 13.625 4.058 13.625 4.4375C13.625 4.817 13.317 5.125 12.9375 5.125H10.1875C9.808 5.125 9.5 4.817 9.5 4.4375Z" fill="#044B75"/>
</svg>
