<svg width="24" height="24" viewBox="0 0 24 24" fill="none" xmlns="http://www.w3.org/2000/svg">
<path d="M9.7816 12.8261C9.37394 12.8261 9.04347 13.1566 9.04347 13.5643C9.04347 13.9719 9.37394 14.3024 9.7816 14.3024H13.7183C14.126 14.3024 14.4565 13.9719 14.4565 13.5643C14.4565 13.1566 14.126 12.8261 13.7183 12.8261H9.7816Z" fill="#044B75"/>
<path fill-rule="evenodd" clip-rule="evenodd" d="M14.3724 2.07809C14.737 1.89578 15.1804 2.04357 15.3627 2.40819L17.1473 5.97742C17.5681 5.99881 17.9518 6.03149 18.2995 6.08142C19.3385 6.2306 20.1985 6.55132 20.8097 7.30731C21.4208 8.06331 21.5542 8.97138 21.4824 10.0186C21.4128 11.0335 21.1385 12.3133 20.7957 13.9132L20.3514 15.9866C20.1201 17.0657 19.9326 17.941 19.6966 18.6248C19.4506 19.3374 19.1264 19.9235 18.5726 20.3711C18.0189 20.8188 17.3779 21.013 16.6296 21.1042C15.9115 21.1917 15.0163 21.1917 13.9127 21.1917H9.5873C8.48372 21.1917 7.5885 21.1917 6.87041 21.1042C6.12207 21.013 5.48111 20.8188 4.92737 20.3711C4.37363 19.9235 4.04941 19.3374 3.80344 18.6248C3.56741 17.941 3.37985 17.0656 3.14863 15.9865L2.70435 13.9132C2.36148 12.3133 2.08722 11.0335 2.0176 10.0186C1.94577 8.97138 2.07918 8.06331 2.69034 7.30731C3.3015 6.55132 4.16146 6.2306 5.20048 6.08142C5.54817 6.0315 5.93186 5.99882 6.3526 5.97742L8.13722 2.40819C8.31953 2.04357 8.76291 1.89578 9.12753 2.07809C9.49215 2.2604 9.63994 2.70378 9.45763 3.0684L8.02238 5.93891C8.38018 5.93687 8.75678 5.93688 9.15253 5.93688H14.3475C14.7431 5.93688 15.1198 5.93687 15.4776 5.93891L14.0423 3.0684C13.86 2.70378 14.0078 2.2604 14.3724 2.07809ZM5.58124 7.52015L5.18467 8.31327C5.00236 8.6779 5.15016 9.12128 5.51478 9.30359C5.8794 9.4859 6.32278 9.33811 6.50509 8.97348L7.27989 7.42389C7.84127 7.41349 8.48043 7.41315 9.21271 7.41315H14.2873C15.0195 7.41315 15.6587 7.41348 16.22 7.42389L16.9948 8.97348C17.1772 9.33811 17.6205 9.4859 17.9852 9.30359C18.3498 9.12128 18.4976 8.6779 18.3153 8.31327L17.9187 7.52014C17.977 7.52719 18.0339 7.5347 18.0897 7.5427C18.9596 7.66761 19.3865 7.89506 19.6616 8.23541C19.9321 8.57003 20.0652 9.02517 20.0125 9.8736H3.48754C3.43479 9.02517 3.56788 8.57003 3.83838 8.23541C4.11353 7.89506 4.54039 7.66761 5.41029 7.5427C5.46603 7.5347 5.523 7.52719 5.58124 7.52015ZM4.16046 13.6627C3.96658 12.758 3.80437 11.9985 3.68657 11.3499H19.8134C19.6956 11.9985 19.5334 12.758 19.3395 13.6627L18.9178 15.6311C18.6743 16.7674 18.5043 17.5543 18.3011 18.1431C18.1044 18.7129 17.9028 19.0143 17.6445 19.2231C17.3862 19.4319 17.0494 19.5659 16.451 19.6388C15.8326 19.7141 15.0276 19.7154 13.8655 19.7154H9.6345C8.47242 19.7154 7.66739 19.7141 7.04899 19.6388C6.45065 19.5659 6.11375 19.4319 5.85547 19.2231C5.59719 19.0143 5.39559 18.7129 5.19892 18.1431C4.99566 17.5543 4.82574 16.7674 4.58225 15.6311L4.16046 13.6627Z" fill="#044B75"/>
</svg>
