<svg width="24" height="24" viewBox="0 0 24 24" fill="none" xmlns="http://www.w3.org/2000/svg">
<path d="M14.5872 2.08448C14.9817 1.88724 15.4614 2.04714 15.6586 2.44162L18.0024 7.12915C19.4431 7.23983 20.3473 7.52243 20.9306 8.24404C21.3942 8.81751 21.5443 9.53097 21.4891 10.5185H2.01086C1.95573 9.53097 2.10578 8.81751 2.56938 8.24404C3.15273 7.52245 4.05682 7.23984 5.49756 7.12916L7.84133 2.44162C8.03857 2.04714 8.51826 1.88724 8.91275 2.08448C9.30723 2.28173 9.46713 2.76142 9.26989 3.1559L7.31608 7.06352C7.83061 7.05791 8.39204 7.05791 9.0049 7.05791H14.4951C15.1079 7.05791 15.6693 7.05791 16.1838 7.06352L14.23 3.1559C14.0328 2.76142 14.1927 2.28173 14.5872 2.08448Z" fill="#044B75"/>
<path fill-rule="evenodd" clip-rule="evenodd" d="M2.758 14.7852C2.53759 13.7566 2.34893 12.8762 2.21496 12.1156H21.285C21.1511 12.8762 20.9624 13.7566 20.742 14.7852L20.2857 16.9148C19.7671 19.3346 19.5079 20.5445 18.6293 21.2547C17.7508 21.9649 16.5135 21.9649 14.0388 21.9649H9.46124C6.98653 21.9649 5.74917 21.9649 4.87065 21.2547C3.99212 20.5445 3.73286 19.3346 3.21434 16.9148L2.758 14.7852ZM9.62039 13.7128C9.17934 13.7128 8.8218 14.0704 8.8218 14.5114C8.8218 14.9525 9.17934 15.31 9.62039 15.31H13.8795C14.3206 15.31 14.6781 14.9525 14.6781 14.5114C14.6781 14.0704 14.3206 13.7128 13.8795 13.7128H9.62039Z" fill="#044B75"/>
</svg>
