<svg width="24" height="24" viewBox="0 0 24 24" fill="none" xmlns="http://www.w3.org/2000/svg">
<path d="M4.00101 13.7486C3.69172 13.7486 3.41415 13.9384 3.30202 14.2267C3.1899 14.5149 3.26622 14.8424 3.49421 15.0514L9.49421 20.5514C9.71346 20.7524 10.0308 20.8048 10.303 20.6851C10.5753 20.5653 10.751 20.296 10.751 19.9986L10.751 3.99855C10.751 3.58434 10.4152 3.24855 10.001 3.24855C9.58679 3.24855 9.25101 3.58434 9.25101 3.99855V13.7486H4.00101Z" fill="#044B75"/>
<path d="M20.001 10.2485L14.751 10.2486V19.9986C14.751 20.4128 14.4152 20.7486 14.001 20.7486C13.5868 20.7486 13.251 20.4128 13.251 19.9986L13.251 3.99855C13.251 3.70113 13.4268 3.4318 13.699 3.31204C13.9713 3.19228 14.2886 3.24471 14.5078 3.44568L20.5078 8.94568C20.7358 9.15468 20.8121 9.48219 20.7 9.77044C20.5879 10.0587 20.3103 10.2485 20.001 10.2485Z" fill="#044B75"/>
</svg>
