<svg width="24" height="24" viewBox="0 0 24 24" fill="none" xmlns="http://www.w3.org/2000/svg">
<mask id="mask0_1253_19230" style="mask-type:alpha" maskUnits="userSpaceOnUse" x="1" y="2" width="22" height="20">
<path fill-rule="evenodd" clip-rule="evenodd" d="M15.0903 10.3574C14.4044 10.2582 13.8116 9.82962 13.505 9.21129L11.9998 6.17561L10.4946 9.21129C10.188 9.82962 9.59516 10.2582 8.90932 10.3574L5.54077 10.8444L7.97868 13.209C8.4748 13.6902 8.70115 14.3834 8.58396 15.0628L8.00843 18.3992L11.0201 16.824C11.6334 16.5032 12.3662 16.5032 12.9795 16.824L15.9911 18.3992L15.4156 15.0628C15.2984 14.3834 15.5248 13.6902 16.0209 13.209L18.4588 10.8444L15.0903 10.3574ZM21.4517 9.16077C21.8693 9.22249 22.1604 9.60706 22.096 10.0225C22.0722 10.1887 21.9934 10.3406 21.8741 10.4569L17.4906 14.7086L18.5262 20.7122C18.5978 21.1252 18.3186 21.5169 17.9034 21.5881C17.7387 21.6166 17.5669 21.5905 17.419 21.5122L11.9998 18.6777L6.58061 21.5122C6.45463 21.5783 6.31252 21.6081 6.17041 21.598C6.02831 21.5879 5.89188 21.5384 5.77661 21.4551C5.66134 21.3718 5.57183 21.2581 5.51823 21.1268C5.46464 20.9954 5.44911 20.8518 5.47339 20.7122L6.50903 14.7086L2.12548 10.4569C1.98033 10.3162 1.89728 10.1238 1.8946 9.92218C1.89191 9.72053 1.96981 9.52608 2.11117 9.38154C2.22809 9.26285 2.38081 9.18451 2.54785 9.16077L8.60654 8.2848L11.3149 2.82246C11.5034 2.44739 11.9616 2.29309 12.3386 2.47825C12.489 2.55184 12.6107 2.67291 12.6846 2.82246L15.393 8.2848L21.4517 9.16077Z" fill="#006FFD"/>
</mask>
<g mask="url(#mask0_1253_19230)">
<rect width="24" height="24" fill="#044B75"/>
</g>
</svg>
