<svg width="24" height="24" viewBox="0 0 24 24" fill="none" xmlns="http://www.w3.org/2000/svg">
<path d="M21.5233 10.9256V10.0465C21.5233 5.3386 17.6944 1.5 12.9767 1.5H11.0233C6.30558 1.5 2.47674 5.3386 2.47674 10.0465V10.9256C1.88093 11.414 1.5 12.1563 1.5 12.9767V16.8837C1.5 18.3684 2.7014 19.5698 4.18605 19.5698H5.16279C6.10046 19.5698 6.87209 18.7981 6.87209 17.8605V12C6.87209 11.0623 6.10046 10.2907 5.16279 10.2907H4.18605C4.09814 10.2907 4.02 10.3102 3.94186 10.32V10.0465C3.94186 6.13953 7.11628 2.96512 11.0233 2.96512H12.9767C16.8837 2.96512 20.0581 6.13953 20.0581 10.0465V10.32C19.98 10.32 19.9019 10.2907 19.814 10.2907H18.8372C17.8995 10.2907 17.1279 11.0623 17.1279 12V17.8605C17.1279 18.7981 17.8995 19.5698 18.8372 19.5698H19.0814V19.814C19.0814 20.4879 18.5344 21.0349 17.8605 21.0349H12C11.5995 21.0349 11.2674 21.367 11.2674 21.7674C11.2674 22.1679 11.5995 22.5 12 22.5H17.8605C19.3451 22.5 20.5465 21.2986 20.5465 19.814V19.4526C21.6698 19.1302 22.5 18.1047 22.5 16.8837V12.9767C22.5 12.1465 22.1191 11.414 21.5233 10.9256ZM5.16279 11.7558C5.29953 11.7558 5.40698 11.8633 5.40698 12V17.8605C5.40698 17.9972 5.29953 18.1047 5.16279 18.1047H4.18605C3.51209 18.1047 2.96512 17.5577 2.96512 16.8837V12.9767C2.96512 12.3028 3.51209 11.7558 4.18605 11.7558H5.16279ZM21.0349 16.8837C21.0349 17.5577 20.4879 18.1047 19.814 18.1047H18.8372C18.7005 18.1047 18.593 17.9972 18.593 17.8605V12C18.593 11.8633 18.7005 11.7558 18.8372 11.7558H19.814C20.4879 11.7558 21.0349 12.3028 21.0349 12.9767V16.8837Z" fill="#044B75"/>
</svg>
